<?xml version="1.0" encoding="UTF-8"?>
<svg width="32px" height="32px" viewBox="0 0 32 32" version="1.1" xmlns="http://www.w3.org/2000/svg" xmlns:xlink="http://www.w3.org/1999/xlink">
    <title>아이콘/ic-range</title>
    <g id="아이콘/ic-range" stroke="none" stroke-width="1" fill="none" fill-rule="evenodd">
        <rect id="Rectangle" x="0" y="0" width="32" height="32"></rect>
        <path d="M9,20 C9,20.2163702 8.92982213,20.4269038 8.8,20.6 C8.46862915,21.0418278 7.8418278,21.1313708 7.4,20.8 L7.4,20.8 L2.06666667,16.8 C1.990861,16.7431458 1.92352092,16.6758057 1.86666667,16.6 C1.53529582,16.1581722 1.62483887,15.5313708 2.06666667,15.2 L2.06666667,15.2 L7.4,11.2 C7.57309617,11.0701779 7.78362979,11 8,11 C8.55228475,11 9,11.4477153 9,12 L9,12 L9,14 L22.9996078,13.999 L23,12 C23,11.4477153 23.4477153,11 24,11 C24.2163702,11 24.4269038,11.0701779 24.6,11.2 L29.9333333,15.2 C30.3751611,15.5313708 30.4647042,16.1581722 30.1333333,16.6 C30.0764791,16.6758057 30.009139,16.7431458 29.9333333,16.8 L24.6,20.8 C24.1581722,21.1313708 23.5313708,21.0418278 23.2,20.6 C23.0701779,20.4269038 23,20.2163702 23,20 L22.9996078,17.999 L9,18 Z" id="Combined-Shape" fill="#7F898F"></path>
    </g>
</svg>